<?xml version="1.0" encoding="utf-8"?>
<!-- Generator: Adobe Illustrator 21.0.0, SVG Export Plug-In . SVG Version: 6.00 Build 0)  -->
<svg version="1.1" id="Calque_1" xmlns="http://www.w3.org/2000/svg" xmlns:xlink="http://www.w3.org/1999/xlink" x="0px" y="0px"
	 viewBox="0 0 60 60" style="enable-background:new 0 0 60 60;" xml:space="preserve">
<style type="text/css">
	.st0{fill:#306DF2;}
	.st1{fill:#FFFFFF;}
</style>
<path class="st0" d="M0,30C0,13.4,13.4,0,30,0c16.6,0,30,13.4,30,30c0,16.6-13.4,30-30,30C13.4,60,0,46.6,0,30z M5.6,30
	c0,13.5,10.9,24.4,24.4,24.4c13.4,0,24.3-10.9,24.3-24.3C54.3,16.5,43.5,5.6,30,5.6C16.5,5.7,5.6,16.5,5.6,30z M30.8,55.5
	c-0.9,0-1.7,0.8-1.7,1.7c0,0.9,0.8,1.7,1.7,1.7c0.9,0,1.7-0.8,1.7-1.7C32.5,56.2,31.8,55.5,30.8,55.5z M58.7,30
	c0-0.9-0.8-1.7-1.7-1.7c-0.9,0-1.7,0.8-1.7,1.7c0,0.9,0.8,1.7,1.7,1.7C58,31.7,58.7,30.9,58.7,30z M30.8,4.4c0.9,0,1.7-0.7,1.7-1.7
	c0-0.9-0.7-1.7-1.7-1.7c-0.9,0-1.7,0.7-1.7,1.6C29.1,3.6,29.9,4.4,30.8,4.4z M4.4,30c0-0.9-0.7-1.7-1.7-1.7C1.7,28.3,1,29.1,1,30
	c0,0.9,0.7,1.7,1.7,1.7C3.6,31.7,4.4,30.9,4.4,30z"/>
<path class="st1" d="M5.6,30C5.6,16.5,16.5,5.7,30,5.6c13.5,0,24.4,10.9,24.4,24.4c0,13.4-10.9,24.3-24.3,24.3
	C16.5,54.4,5.7,43.5,5.6,30z M33.5,36c0.9,1.7,1.7,3.3,2,5.1c0.2,1.2,0.3,2.5,0.6,3.7c0.7,3,2.7,3.9,5.3,2.5
	c4.2-2.2,6.9-5.6,7.9-10.3c0.7-3.2-0.7-5.7-3.7-6.8c-1-0.4-2.1-0.6-3.1-0.8c-1.7-0.3-3.5-0.3-5.3,0C37.2,32.3,36.1,34.6,33.5,36z
	 M33.9,23.7c0.2-0.2,0.3-0.4,0.4-0.6c1.2-1.8,2.6-3.3,4.4-4.4c0.7-0.5,1.4-1,2.1-1.7c2-2,1.8-3.8-0.4-5.5C38.8,10.3,37,9.6,35,9.1
	c-2.8-0.6-5.7-0.7-8.4,0.4c-2.3,1-3.6,2.7-3.5,5.3c0.1,3.3,1.6,6,3.3,8.7C28.9,22.2,31.4,22.1,33.9,23.7z M22.6,29.5
	c-0.3,0-0.5,0-0.6,0c-2.2,0-4.4-0.3-6.4-1.2c-0.8-0.3-1.6-0.6-2.5-0.7C10.6,27.1,9,28.4,9,30.9c0,1.5,0.2,2.9,0.5,4.3
	c0.8,3.2,2.5,6,5.2,8c1,0.7,2,1.2,3.2,1.2c2,0.1,3.5-0.9,4.8-2.2c1.7-1.8,2.9-3.9,3.9-6.2c0-0.1,0-0.2,0-0.2
	C24.2,34.5,22.7,32.5,22.6,29.5z M29.9,35.1c2.9,0,5.3-2.4,5.3-5.3c0-2.9-2.4-5.3-5.3-5.3c-3,0-5.4,2.4-5.4,5.3
	C24.6,32.7,27,35.1,29.9,35.1z"/>
<path class="st1" d="M30.8,55.5c0.9,0,1.7,0.8,1.7,1.7c0,0.9-0.8,1.7-1.7,1.7c-0.9,0-1.7-0.8-1.7-1.7C29.1,56.2,29.9,55.5,30.8,55.5
	z"/>
<path class="st1" d="M58.7,30c0,0.9-0.7,1.7-1.7,1.7c-0.9,0-1.7-0.7-1.7-1.7c0-0.9,0.8-1.7,1.7-1.7C58,28.3,58.7,29.1,58.7,30z"/>
<path class="st1" d="M30.8,4.4c-0.9,0-1.7-0.8-1.7-1.7c0-0.9,0.8-1.7,1.7-1.6c0.9,0,1.7,0.8,1.7,1.7C32.5,3.7,31.7,4.4,30.8,4.4z"/>
<path class="st1" d="M4.4,30c0,0.9-0.7,1.7-1.7,1.7C1.7,31.7,1,30.9,1,30c0-0.9,0.7-1.7,1.7-1.7C3.6,28.3,4.4,29.1,4.4,30z"/>
<path class="st0" d="M33.5,36c2.6-1.4,3.7-3.7,3.7-6.5c1.8-0.3,3.5-0.3,5.3,0c1.1,0.2,2.1,0.4,3.1,0.8c3,1.1,4.4,3.6,3.7,6.8
	c-1,4.6-3.8,8-7.9,10.3c-2.7,1.4-4.6,0.5-5.3-2.5c-0.3-1.2-0.4-2.5-0.6-3.7C35.2,39.3,34.4,37.7,33.5,36z"/>
<path class="st0" d="M33.9,23.7c-2.5-1.6-5-1.5-7.6-0.2c-1.7-2.7-3.2-5.4-3.3-8.7c-0.1-2.6,1.2-4.3,3.5-5.3c2.7-1.1,5.6-1.1,8.4-0.4
	c1.9,0.4,3.8,1.2,5.4,2.4c2.2,1.7,2.4,3.5,0.4,5.5c-0.6,0.6-1.3,1.2-2.1,1.7c-1.8,1.1-3.2,2.7-4.4,4.4
	C34.2,23.3,34.1,23.5,33.9,23.7z"/>
<path class="st0" d="M22.6,29.5c0,3,1.5,5,4,6.3c0,0.1,0,0.2,0,0.2c-0.9,2.3-2.1,4.4-3.9,6.2c-1.3,1.3-2.8,2.3-4.8,2.2
	c-1.2-0.1-2.3-0.5-3.2-1.2c-2.7-2-4.3-4.8-5.2-8C9.1,33.9,9,32.4,9,30.9c0-2.6,1.6-3.9,4.1-3.4c0.8,0.2,1.7,0.4,2.5,0.7
	c2.1,0.9,4.2,1.3,6.4,1.2C22.2,29.5,22.4,29.5,22.6,29.5z"/>
<path class="st0" d="M29.9,35.1c-3,0-5.3-2.4-5.3-5.3c0-2.9,2.4-5.3,5.4-5.3c2.9,0,5.3,2.4,5.3,5.3C35.3,32.7,32.9,35.1,29.9,35.1z"
	/>
</svg>
