<?xml version="1.0" encoding="utf-8"?>
<!-- Generator: Adobe Illustrator 21.0.0, SVG Export Plug-In . SVG Version: 6.00 Build 0)  -->
<svg version="1.1" id="Calque_1" xmlns="http://www.w3.org/2000/svg" xmlns:xlink="http://www.w3.org/1999/xlink" x="0px" y="0px"
	 viewBox="0 0 29.3 60" style="enable-background:new 0 0 29.3 60;" xml:space="preserve">
<style type="text/css">
	.st0{fill:#306DF2;}
</style>
<path class="st0" d="M13,20.8c0-0.5,0-1,0-1.4c0-2,0-4,0-5.9c0-0.2-0.2-0.4-0.3-0.6c-0.1-0.2-0.3-0.4-0.2-0.6c0.2-1.3-0.3-2-1.3-2.8
	C9.2,8,8.7,5.4,9.7,3.3c0.9-2.2,3.1-3.5,5.5-3.2c2.3,0.2,4.3,1.9,4.8,4.2c0.5,2.3-0.5,4.7-2.6,5.9c-0.3,0.2-0.4,0.4-0.4,0.7
	c0,0.4,0,0.8,0,1.2c0,0.3,0,0.7-0.4,0.8c-0.1,0-0.2,0.2-0.2,0.3c0,2.5,0,5.1,0,7.6c0.2,0,0.3,0.1,0.5,0.1c1.5,0,2.9,0,4.4,0
	c1.2,0,2-0.8,2-2c0-0.3,0-0.5,0-0.8c0-0.1,0-0.3-0.1-0.3c-0.6-0.2-0.5-0.7-0.5-1.1c0-0.1,0-0.3,0-0.4c0.1-0.8-0.1-1.4-0.8-2
	c-1.4-1.3-1.7-3.4-0.9-5.1c0.9-1.8,2.7-2.7,4.7-2.4c1.9,0.3,3.4,1.8,3.6,3.7c0.2,1.7-0.3,3.2-1.7,4.3c-0.2,0.2-0.3,0.5-0.3,0.7
	c-0.1,0.5,0,1,0,1.5c0,0.4,0.1,0.8-0.5,0.9c-0.1,0-0.1,0.3-0.2,0.5c-0.1,0.9-0.1,1.9-0.5,2.7c-0.8,2.1-2.8,3.3-5.1,3.3
	c-1.4,0-2.7,0-4.1,0c-0.1,0-0.3,0-0.5,0c0,5.1,0,10.1,0,15.1c1.4,0.5,1.5,0.7,1.6,2.2c0.2,5.1,0.4,10.1,0.6,15.2
	c0,0.1,0,0.1,0.1,0.2c0.9,0,1.7,0.3,1.9,1.3c0.1,0.4,0.1,0.9,0.1,1.4c0,0.2-0.4,0.4-0.6,0.4c-2.9,0-5.8,0-8.6,0c-0.7,0-1.3,0-2,0
	c-0.4,0-0.6-0.2-0.6-0.6c-0.1-1.6,0.4-2.2,2.1-2.5c0.1-1.4,0.2-2.9,0.2-4.4c0.2-3.9,0.3-7.7,0.4-11.6c0-0.8,0.4-1.2,1.6-1.6
	c0-0.2,0-0.3,0-0.5c0-4.7,0-9.4,0-14c0-0.5-0.1-0.6-0.6-0.6c-1.4,0-2.7,0-4.1,0c-3.2,0-5.5-2.3-5.5-5.5c0-0.3,0-0.6,0-0.9
	c-0.6-0.1-0.7-0.5-0.6-0.9c0-0.1,0-0.2,0-0.4c0.1-1-0.1-1.7-0.9-2.4c-1.5-1.4-1.6-3.9-0.4-5.6c1.2-1.7,3.6-2.3,5.5-1.4
	c1.9,0.9,2.9,3.1,2.4,5.1c-0.3,1-0.8,1.8-1.6,2.5c-0.2,0.2-0.4,0.5-0.4,0.8c-0.1,0.5,0,1,0,1.5c0,0.3,0,0.7-0.4,0.8
	c-0.1,0-0.2,0.1-0.2,0.2c-0.2,1.5,0.2,2.9,2.2,2.9c1.3,0,2.7,0,4,0C12.5,20.9,12.7,20.8,13,20.8z M14.6,9.6c0.5,0,1,0,1.5,0
	c0.3,0,0.7-0.1,0.9-0.3c2.1-1.3,2.8-4,1.6-6.1c-1.2-2.1-3.9-2.9-6-1.8c-2.2,1.1-3.2,3.8-2.1,6c0.7,1.4,1.7,2.5,3.5,2.3
	C14.2,9.5,14.4,9.6,14.6,9.6z M4.4,14.4c0.6-0.1,1.3,0,1.8-0.3c1.5-0.7,2.2-2.6,1.6-4.3C7.2,8.2,5.5,7.3,3.7,7.6
	C2.1,7.9,0.8,9.3,0.8,11c0,1,0.4,1.9,1.1,2.7C2.6,14.4,3.5,14.4,4.4,14.4z M24.8,14.4c0.6-0.1,1.2,0,1.7-0.2
	c1.7-0.8,2.3-2.7,1.6-4.4c-0.7-1.7-2.5-2.6-4.3-2.1c-1.7,0.5-2.8,2.1-2.6,3.9C21.6,13.4,22.7,14.3,24.8,14.4z M9.6,59.2
	c0.3,0,0.6,0,0.9,0c2.9,0,5.8,0,8.7,0c0.6,0,0.8-0.3,0.5-0.8c-0.2-0.3-0.6-0.5-0.9-0.5c-2.7,0-5.5,0-8.2,0
	C9.7,57.8,9.5,58.2,9.6,59.2z M12.3,41.6c1.6,0,3.1,0,4.6,0c0.2-1,0-1.3-1-1.3c-0.9,0-1.8,0-2.6,0C12.3,40.3,12.2,40.5,12.3,41.6z
	 M5.8,16.8C6,15.2,6,15.2,4.5,15.2c-0.1,0-0.1,0-0.2,0c-1.5,0-1.5,0-1.3,1.6C4,16.8,4.9,16.8,5.8,16.8z M26.3,16.8
	c0-0.5,0-0.9,0-1.4c0-0.1-0.2-0.3-0.3-0.3c-0.8,0-1.7,0-2.6,0c0,0.5,0,0.9,0,1.3c0,0.1,0.2,0.3,0.3,0.3
	C24.6,16.8,25.4,16.8,26.3,16.8z M13.3,12c0.9,0,1.8,0,2.7,0c0-0.5,0-1,0-1.5c-0.9,0-1.8,0-2.7,0C13.3,11,13.3,11.5,13.3,12z"/>
</svg>
