<?xml version="1.0" encoding="utf-8"?>
<!-- Generator: Adobe Illustrator 21.0.0, SVG Export Plug-In . SVG Version: 6.00 Build 0)  -->
<svg version="1.1" id="Calque_1" xmlns="http://www.w3.org/2000/svg" xmlns:xlink="http://www.w3.org/1999/xlink" x="0px" y="0px"
	 viewBox="0 0 60 60" style="enable-background:new 0 0 60 60;" xml:space="preserve">
<style type="text/css">
	.st0{fill:#306DF2;}
</style>
<path class="st0" d="M30,60C13.5,60,0,46.5,0,30C0,13.5,13.5,0,30,0c16.5,0,30,13.5,30,30.1C60,46.5,46.5,60,30,60z M29.9,58.1
	c15.4,0,28.1-12.6,28.1-28C58.1,14.7,45.5,2,30.1,1.9C14.7,1.8,1.9,14.5,1.9,30C1.9,45.4,14.5,58,29.9,58.1z"/>
<path class="st0" d="M30.1,10.2c5.7,4.6,11.3,9.2,17,13.8c0.2,0.1,0.3,0.3,0.5,0.4c2.1,1.1,2.6,2.8,2,5.2c-1,0-2.1,0-3.3,0
	c0,5.5,0,10.9,0,16.3c-10.8,0-21.6,0-32.4,0c0-0.5-0.1-0.9-0.1-1.4c0-4.3,0-8.6,0-12.8c0-2.3,0.2-2-1.9-2c-0.5,0-0.9,0-1.5,0
	c0-1.1,0-2.1,0-3.1c0-0.3,0.3-0.6,0.5-0.7c6.3-5.1,12.5-10.2,18.8-15.3C29.7,10.3,29.9,10.3,30.1,10.2z M15.5,44.1
	c9.7,0,19.3,0,29.1,0c0-0.5,0-0.9,0-1.3c0-2.8,0-5.6,0-8.4c0-1.6,0.4-3.4-0.2-4.7c-0.7-1.3-2.3-2.2-3.6-3.2
	c-3.6-2.9-7.2-5.8-10.8-8.8c-0.2,0.1-0.4,0.2-0.5,0.4c-4.4,3.6-8.8,7.1-13.2,10.8c-0.4,0.3-0.6,0.9-0.6,1.4c0,3.8,0,7.6,0,11.4
	C15.5,42.4,15.5,43.3,15.5,44.1z"/>
<path class="st0" d="M45.3,20.8c-1.3-1-2.4-1.9-3.5-2.8c-0.2-0.2-0.4-0.6-0.4-0.9c0-1.4,0-2.8,0-4.3c1.3,0,2.6,0,3.9,0
	C45.3,15.4,45.3,18,45.3,20.8z"/>
<path class="st0" d="M30.1,39.2c2.8,0,5.6,0,8.4,0c0.3,0,0.7,0,0.9,0.1c0.2,0.1,0.4,0.4,0.4,0.6c0,0.1-0.2,0.4-0.4,0.5
	c-0.3,0.1-0.7,0.1-1.1,0.1c-5.6,0-11.1,0-16.7,0c-0.2,0-0.4,0.1-0.6,0c-0.3-0.1-0.6-0.4-0.9-0.6c0.3-0.2,0.6-0.6,0.9-0.6
	C24.1,39.2,27.1,39.2,30.1,39.2z"/>
<path class="st0" d="M29.4,30.2c-1.8,1.2-1.9,2.3-0.3,3.7c0.7,0.6,0.4,1.6-0.3,2.4c-0.4,0.5-0.7,1.1-1,1.7c-0.2,0.2-0.5,0.5-0.6,0.5
	c-0.2,0-0.6-0.5-0.5-0.6c0.2-0.6,0.3-1.3,0.7-1.8c0.9-1.1,1-1.3,0-2.2c-0.8-0.7-1.1-1.5-0.6-2.5C27.3,30.4,28,29.8,29.4,30.2z"/>
<path class="st0" d="M33.4,30.2c-1.9,1.3-1.7,2.4-0.3,3.8c0.3,0.3,0.2,1.2,0,1.8c-0.3,0.8-0.9,1.6-1.4,2.4c-0.1,0.2-0.5,0.3-0.7,0.3
	c-0.2-0.1-0.5-0.4-0.5-0.6c0.2-0.6,0.4-1.3,0.8-1.8c1-1.2,1.1-1.3,0-2.3c-0.7-0.7-1.1-1.4-0.6-2.4C31.2,30.4,31.9,29.8,33.4,30.2z"
	/>
<path class="st0" d="M25.4,30.2c-2,1.3-1.6,2.4-0.3,3.8c0.3,0.3,0.2,1.3-0.1,1.9c-0.3,0.8-0.9,1.5-1.3,2.3c-0.1,0.2-0.4,0.3-0.6,0.3
	c-0.2-0.1-0.6-0.4-0.5-0.5c0.2-0.7,0.4-1.5,0.8-2c0.8-0.8,0.9-1.4,0-2.2c-0.8-0.6-1.2-1.4-0.7-2.4C23.2,30.4,23.9,29.8,25.4,30.2z"
	/>
<path class="st0" d="M37.2,30.1c-0.1,0.2-0.1,0.3-0.1,0.3c-1.3,1.5-1.2,1.5,0,3.2c0.6,0.9,0.5,1.7-0.1,2.5c-0.4,0.5-0.7,1.2-1.1,1.8
	c-0.1,0.2-0.4,0.5-0.6,0.5c-0.2-0.1-0.6-0.4-0.6-0.5c0.2-0.6,0.3-1.3,0.7-1.8c1-1.2,1.1-1.3,0-2.4c-0.7-0.7-1-1.4-0.5-2.4
	C35.3,30.3,35.9,30,37.2,30.1z"/>
</svg>
