<?xml version="1.0" encoding="utf-8"?>
<!-- Generator: Adobe Illustrator 21.0.0, SVG Export Plug-In . SVG Version: 6.00 Build 0)  -->
<svg version="1.1" id="Calque_1" xmlns="http://www.w3.org/2000/svg" xmlns:xlink="http://www.w3.org/1999/xlink" x="0px" y="0px"
	 viewBox="0 0 60 60" style="enable-background:new 0 0 60 60;" xml:space="preserve">
<style type="text/css">
	.st0{fill:#306DF2;}
</style>
<path class="st0" d="M60,27.5c0,1.7,0,3.4,0,5.1c-0.1,0.3-0.2,0.7-0.3,1c-1.4,12.1-10,22.1-21.8,25.3c-1.8,0.5-3.6,0.8-5.5,1.1
	c-1.7,0-3.4,0-5.1,0c-0.3-0.1-0.6-0.2-0.9-0.2C14.1,57.9,5.7,51,1.5,39.1c-0.8-2.1-1-4.4-1.5-6.6c0-1.7,0-3.4,0-5.1
	c0.1-0.3,0.2-0.7,0.3-1C2.1,14.2,8.8,5.9,20.4,1.7c2.3-0.8,4.7-1.1,7.1-1.7c1.7,0,3.4,0,5.1,0c0.3,0.1,0.6,0.2,0.9,0.2
	c12.4,1.8,20.8,8.7,25,20.5C59.2,22.9,59.5,25.2,60,27.5z M58.2,30c0-15.6-12.6-28.2-28.1-28.2C14.5,1.8,1.9,14.4,1.8,29.9
	c0,15.6,12.6,28.2,28.2,28.2C45.6,58.2,58.1,45.6,58.2,30z"/>
<path class="st0" d="M30,14.1c-2.5,2.1-5,4.2-7.5,6.2c-3.4,2.8-6.7,5.6-10.1,8.5c-0.8,0.7-1.7,0.9-2.4,0c-0.8-0.9-0.2-1.7,0.5-2.3
	c4.6-3.8,9.1-7.6,13.7-11.4c1.5-1.2,2.9-2.4,4.4-3.7c1-0.9,1.9-0.9,2.9,0c5.9,5,11.9,10,17.8,15c0.7,0.6,1.4,1.1,0.9,2.1
	c-0.4,1.1-1.6,1.2-2.6,0.4c-2.8-2.4-5.6-4.7-8.5-7.1C36.1,19.2,33.1,16.6,30,14.1z"/>
<path class="st0" d="M44.5,44.1c-0.6,0-1.2,0-1.9,0c0-0.5,0-1,0-1.4c0-4.1,0-8.2,0-12.3c0-0.5-0.3-1.2-0.7-1.5
	c-3.5-3-7-5.8-10.5-8.8c-1.1-0.9-1.7-0.9-2.8,0c-3.3,2.9-6.8,5.8-10.2,8.6c-0.7,0.6-0.9,1.1-0.9,1.9c0,4.1,0,8.3,0,12.4
	c0,0.4,0,0.8-0.1,1.2c-0.6,0-1.1,0-1.8,0c0-2,0-3.9,0-5.9c0-2.9,0-5.9,0-8.8c0-0.6,0.4-1.3,0.8-1.6c4-3.5,8.2-6.8,12.2-10.3
	c0.9-0.8,1.6-0.8,2.5,0c4.1,3.5,8.2,6.9,12.3,10.4c0.4,0.4,0.9,1.1,0.9,1.6C44.5,34.3,44.5,39.1,44.5,44.1z"/>
<path class="st0" d="M34.9,41.3c-3.3,0-6.5,0-9.8,0c0-2-0.2-3.9,0-5.7c0.3-2.5,2.7-4.1,5.3-3.9c2.5,0.2,4.4,2.2,4.4,4.8
	C34.9,38,34.9,39.6,34.9,41.3z M30.8,40.5c1.1,0,2.1,0,3.2,0c0-1.6,0.1-3.1,0-4.6c-0.3-2.2-1.9-3.5-4-3.5c-2,0-3.7,1.4-4,3.4
	c-0.2,1.5,0,3.1,0,4.7c1.2,0,2.2,0,3.2,0c0.1-1.1,0.3-2.1-0.5-3c-0.7-0.7-0.4-1.6,0.3-2.3c0.7-0.7,1.5-0.7,2.3,0
	c0.7,0.6,1,1.6,0.3,2.3C30.6,38.3,30.8,39.3,30.8,40.5z"/>
<path class="st0" d="M30,42.4c1.7,0,3.5-0.1,5.2,0c0.4,0,1.2,0.4,1.2,0.8c0.1,0.8-0.6,0.9-1.2,0.9c-3.5,0-6.9,0-10.4,0
	c-0.7,0-1.4-0.1-1.2-0.9c0.1-0.3,0.8-0.7,1.2-0.7C26.5,42.3,28.3,42.4,30,42.4z"/>
<path class="st0" d="M30.1,26.7c2.3,0.1,4.5,0.8,6.3,2.4c0.3,0.3,0.3,0.8,0.5,1.2c-0.4-0.1-1,0-1.2-0.2c-2.8-2.9-8.7-2.8-11.4,0
	c-0.2,0.3-0.8,0.2-1.2,0.3c0.1-0.4,0.2-0.9,0.4-1.2C25.2,27.7,27.8,26.7,30.1,26.7z"/>
<path class="st0" d="M35.5,31.6c-0.1,0.2-0.2,0.5-0.4,0.5c-0.3,0-0.6-0.1-0.8-0.2c-1-0.5-1.9-1.2-3-1.5c-2-0.6-3.7,0-5.3,1.3
	c-0.3,0.3-0.9,0.2-1.3,0.3c0.2-0.4,0.3-1,0.6-1.2c2.8-2.3,6.7-2.3,9.5,0c0.3,0.2,0.6,0.3,1,0.5C35.7,31.4,35.6,31.5,35.5,31.6z"/>
<path class="st0" d="M27.1,37.4c-0.9-1.2-0.5-2.6,0.5-3.5c1.1-0.9,2.2-1.1,3.1-0.3C28.7,33.9,27.3,34.9,27.1,37.4z"/>
</svg>
