<?xml version="1.0" encoding="utf-8"?>
<!-- Generator: Adobe Illustrator 21.0.0, SVG Export Plug-In . SVG Version: 6.00 Build 0)  -->
<svg version="1.1" id="Calque_1" xmlns="http://www.w3.org/2000/svg" xmlns:xlink="http://www.w3.org/1999/xlink" x="0px" y="0px"
	 viewBox="0 0 56.6 60" style="enable-background:new 0 0 56.6 60;" xml:space="preserve">
<style type="text/css">
	.st0{fill:#306DF2;}
</style>
<path class="st0" d="M32.6,60c-1,0-1.9,0-2.8,0c-6-0.1-11.6-1.6-16.7-4.9c-6.8-4.5-11-10.9-12.5-18.9c-1.4-7.5-0.4-14.7,3.2-21.5
	C8,6.7,14.6,2,23.5,0.5c6.6-1.2,13-0.2,18.8,3.1c6.6,3.7,10.7,9.4,12.9,16.6c1.7,5.7,1.9,11.4-0.2,17.1C52.3,44.6,47,49,39.1,50.1
	c-3.5,0.5-6.9,0.1-10.1-1.5c-2.2-1.1-3.9-2.8-4.9-5.1C24,43.2,23.8,43,23.6,43c-4.4-1.7-7.1-5.6-7.1-10.3c0-2.6,0-5.1,0-7.7
	c0-0.2,0-0.5,0-0.8c1.2,0,2.4,0,3.7,0c0-0.3,0-0.5,0-0.8c0-3.5,0-7,0-10.5c0-1,0.7-1.8,1.6-1.9c0.9-0.1,1.8,0.4,2.1,1.3
	c0.1,0.3,0.1,0.7,0.1,1.1c0,3.4,0,6.7,0,10.1c0,0.2,0,0.4,0,0.7c2,0,3.9,0,5.9,0c0-0.2,0-0.5,0-0.7c0-3.5,0-7,0-10.5
	c0-1,0.7-1.8,1.6-2c0.9-0.2,1.8,0.4,2.1,1.2c0.1,0.3,0.1,0.7,0.1,1.1c0,3.3,0,6.7,0,10c0,0.3,0,0.5,0,0.8c1.4,0,2.7,0,4.1,0
	c0,0.7,0,1.2,0,1.8c0,2.2,0,4.4,0,6.7c0,5-3.1,9.2-7.9,10.6c-0.1,0-0.2,0.1-0.4,0.2c0.4,0.3,0.8,0.6,1.2,0.8
	c1.3,0.8,2.7,1.1,4.2,1.3c4.6,0.4,8.7-0.8,12-4.1c2.4-2.4,3.9-5.3,4.4-8.6c1.5-9.8-1.6-17.9-9.6-23.9c-4.2-3.2-9.2-4.3-14.5-4
	c-5.5,0.3-10.4,2.1-14.5,5.8C9,14.1,6.7,18.4,5.5,23.3c-1.4,6.1-1.1,12.1,1.6,17.8c3.4,7.3,9.2,11.6,17,13.4c2.5,0.6,5,0.7,7.5,0.6
	c0.2,0,0.4,0,0.7,0C32.4,56.8,32.5,58.3,32.6,60z"/>
</svg>
